<svg width="45" height="45" viewBox="0 0 45 45" fill="none" xmlns="http://www.w3.org/2000/svg">
<path d="M38.7057 18.3797C38.3913 18.1756 37.9905 18.2991 37.8105 18.6554C37.6304 19.0121 37.7397 19.466 38.0541 19.6701C41.6873 22.027 43.6879 25.0663 43.6879 28.2276C43.6879 34.372 36.0467 39.7353 25.9134 40.7031C25.5526 40.7376 25.2847 41.0973 25.3148 41.5063C25.3438 41.8943 25.6305 42.1875 25.9678 42.1875C25.9862 42.1875 26.005 42.1867 26.0238 42.1848C31.1953 41.691 35.9486 40.0622 39.4086 37.5987C43.0141 35.0315 45 31.7037 45 28.2276C45 24.5102 42.7647 21.0127 38.7057 18.3797Z" fill="white"/>
<path d="M22.3949 41.706C22.3986 41.6995 22.4019 41.693 22.4053 41.6865C22.4139 41.6705 22.4219 41.654 22.4296 41.6372C22.433 41.63 22.4356 41.6227 22.4386 41.6154C22.4456 41.5986 22.452 41.5814 22.4576 41.5642C22.4603 41.5566 22.4626 41.5493 22.465 41.5417C22.4703 41.5237 22.475 41.5057 22.479 41.487C22.4807 41.4797 22.4827 41.4721 22.4843 41.4644C22.488 41.4449 22.4907 41.4254 22.493 41.4055C22.494 41.3987 22.4953 41.3918 22.496 41.3849C22.4983 41.3585 22.5 41.3314 22.5 41.3042C22.5 41.2767 22.4983 41.25 22.496 41.2232C22.4953 41.2163 22.494 41.2098 22.493 41.2029C22.4907 41.1827 22.488 41.1632 22.4843 41.1437C22.4827 41.136 22.4807 41.1288 22.479 41.1211C22.475 41.1028 22.4703 41.0844 22.465 41.0664C22.4626 41.0588 22.4603 41.0515 22.4576 41.0439C22.452 41.0263 22.4456 41.0095 22.4386 40.9927C22.4356 40.9854 22.4326 40.9781 22.4296 40.9709C22.4219 40.9537 22.4139 40.9376 22.4053 40.9212C22.4019 40.915 22.3986 40.9085 22.3949 40.9021C22.3843 40.8829 22.3722 40.8646 22.3599 40.8466C22.3582 40.8439 22.3566 40.8413 22.3546 40.8386C22.3402 40.8183 22.3249 40.7992 22.3085 40.7812C22.3039 40.7759 22.2989 40.7713 22.2942 40.7659C22.2819 40.753 22.2695 40.7407 22.2565 40.7289C22.2542 40.7266 22.2522 40.7239 22.2498 40.722L18.886 37.7599C18.6058 37.5129 18.2035 37.5737 17.9881 37.8948C17.7726 38.2163 17.8253 38.677 18.1058 38.924L19.9113 40.514C15.0862 40.2384 10.6156 38.9416 7.161 36.7919C3.36886 34.4323 1.28083 31.3455 1.28083 28.1001C1.28083 24.9793 3.23377 21.979 6.78042 19.6523C7.08729 19.4508 7.19369 19.0027 7.01824 18.6506C6.84246 18.2989 6.45121 18.1769 6.14434 18.3784C2.18209 20.9777 0 24.4303 0 28.1001C0 31.9087 2.32618 35.4538 6.54994 38.0818C10.2137 40.3615 14.9454 41.7252 20.0301 41.9897L18.1058 43.6841C17.8253 43.9311 17.7726 44.3917 17.9881 44.7133C18.1141 44.9014 18.3043 45 18.4964 45C18.6325 45 18.7699 44.9507 18.886 44.8482L22.2498 41.8861C22.2522 41.8838 22.2542 41.8815 22.2565 41.8792C22.2695 41.8674 22.2819 41.8551 22.2942 41.8421C22.2989 41.8372 22.3039 41.8322 22.3085 41.8272C22.3249 41.8089 22.3402 41.7898 22.3546 41.7695C22.3566 41.7668 22.3582 41.7642 22.3599 41.7615C22.3722 41.7435 22.3839 41.7252 22.3949 41.706Z" fill="white"/>
<path d="M8.80908 25.6419L22.1912 32.2713C22.1983 32.2751 22.2057 32.2776 22.2128 32.2807C22.2234 32.2855 22.2341 32.29 22.2447 32.2944C22.2617 32.301 22.2791 32.3069 22.2965 32.3124C22.3071 32.3155 22.3174 32.3189 22.328 32.3213C22.3472 32.3262 22.3667 32.33 22.3862 32.3331C22.3954 32.3348 22.4043 32.3369 22.4135 32.3379C22.4422 32.3413 22.4709 32.3438 22.5 32.3438C22.5287 32.3438 22.5574 32.3413 22.5865 32.3379C22.5954 32.3369 22.6046 32.3348 22.6138 32.3331C22.6333 32.33 22.6525 32.3265 22.672 32.3213C22.6826 32.3189 22.6929 32.3155 22.7035 32.3124C22.7209 32.3069 22.7383 32.301 22.7553 32.2944C22.7659 32.29 22.7766 32.2855 22.7872 32.2807C22.7946 32.2776 22.8017 32.2751 22.8092 32.2713L36.1909 25.6419C36.4189 25.5288 36.5625 25.3009 36.5625 25.052V19.7451C36.5625 19.3796 36.2579 20.4071 35.8817 20.4071C35.5059 20.4071 35.201 19.3796 35.201 19.7451V24.6465L23.1808 30.6016V17.1393L35.201 11.1842V19.7451C35.201 20.1106 35.5059 20.4071 35.8817 20.4071C36.2579 20.4071 36.5625 20.1106 36.5625 19.7451V10.104C36.5625 10.074 36.5604 10.0444 36.5561 10.0151C36.5547 10.0051 36.5522 9.99575 36.5504 9.98575C36.5469 9.96679 36.5434 9.94782 36.538 9.92921C36.5348 9.91783 36.5302 9.9068 36.5263 9.89576C36.521 9.87921 36.5153 9.86266 36.5083 9.8468C36.5033 9.83543 36.4976 9.82439 36.4919 9.81336C36.4845 9.79819 36.4767 9.78336 36.4682 9.76923C36.4614 9.7582 36.454 9.74785 36.4469 9.73716C36.4377 9.72372 36.4281 9.71027 36.4178 9.69751C36.4097 9.68717 36.4008 9.67752 36.3923 9.66786C36.3813 9.65545 36.37 9.64373 36.3583 9.63235C36.3483 9.62304 36.3384 9.61442 36.3281 9.6058C36.3157 9.59511 36.3026 9.58512 36.2895 9.57546C36.2785 9.56719 36.2672 9.5596 36.2555 9.55202C36.2494 9.54788 36.2438 9.5434 36.2374 9.5396C36.2292 9.53478 36.2204 9.53098 36.2118 9.5265C36.2048 9.52271 36.1984 9.51788 36.1909 9.51409L22.8088 2.88465C22.6149 2.78845 22.3851 2.78845 22.1908 2.88465L20.2659 3.83831C19.9309 4.00449 19.7976 4.40306 19.9681 4.72853C20.139 5.05435 20.5485 5.18399 20.8836 5.01815L22.5 4.21722L34.3823 10.104L33.6381 10.4729L22.5 15.9908L11.3619 10.4729L10.6177 10.104L20.8836 5.01815C21.2186 4.85231 20.7605 4.73445 20.5899 4.40863C20.419 4.08281 20.6006 3.67212 20.2659 3.83831L8.80908 9.51409C8.80199 9.51788 8.79525 9.52271 8.78816 9.5265C8.77965 9.53098 8.77079 9.53478 8.76263 9.5396C8.75625 9.5434 8.75093 9.54788 8.74455 9.55202C8.73285 9.55926 8.72186 9.56719 8.71051 9.57546C8.69739 9.58512 8.68427 9.59511 8.67186 9.6058C8.66158 9.61442 8.65165 9.62304 8.64208 9.63235C8.63003 9.64373 8.61903 9.65545 8.60804 9.66786C8.59918 9.67752 8.59031 9.68717 8.58216 9.69751C8.57188 9.71027 8.5623 9.72372 8.55309 9.73716C8.54599 9.74785 8.53855 9.7582 8.53181 9.76923C8.5233 9.78336 8.51586 9.79853 8.50806 9.81336C8.50238 9.82439 8.49671 9.83543 8.49175 9.84646C8.48466 9.86266 8.47934 9.87921 8.47366 9.89576C8.46976 9.9068 8.46551 9.91748 8.46232 9.92886C8.457 9.94782 8.45346 9.96679 8.44991 9.9861C8.44814 9.99575 8.4453 10.0051 8.44388 10.0151C8.43998 10.0444 8.4375 10.074 8.4375 10.104V15.1595C8.4375 15.5253 8.74242 15.8215 9.11825 15.8215C9.49408 15.8215 9.799 15.5253 9.799 15.1595V11.1842L21.8192 17.1393V30.6016L9.799 24.6465V15.1595C9.799 14.7937 9.49408 15.8215 9.11825 15.8215C8.74242 15.8215 8.4375 14.7937 8.4375 15.1595V25.052C8.4375 25.3009 8.5811 25.5288 8.80908 25.6419Z" fill="white"/>
</svg>
