<svg width="38" height="32" viewBox="0 0 38 32" fill="none" xmlns="http://www.w3.org/2000/svg">
<g clip-path="url(#clip0)" filter="url(#filter0_d)">
<path d="M6.27497 16.6636C6.27525 16.6639 6.27548 16.6642 6.27581 16.6645L11.1744 21.5395C11.5414 21.9047 12.135 21.9033 12.5003 21.5363C12.8655 21.1693 12.8641 20.5758 12.4972 20.2105L9.20822 16.9375L29.0625 16.9375C29.5803 16.9375 30 16.5178 30 16C30 15.4822 29.5803 15.0625 29.0625 15.0625L9.20827 15.0625L12.4971 11.7895C12.8641 11.4243 12.8655 10.8307 12.5003 10.4637C12.135 10.0966 11.5413 10.0954 11.1744 10.4605L6.27577 15.3355C6.27548 15.3358 6.27525 15.3361 6.27492 15.3364C5.90775 15.7029 5.90892 16.2984 6.27497 16.6636Z" fill="white"/>
</g>
<defs>
<filter id="filter0_d" x="0" y="2" width="36" height="36" filterUnits="userSpaceOnUse" color-interpolation-filters="sRGB">
<feFlood flood-opacity="0" result="BackgroundImageFix"/>
<feColorMatrix in="SourceAlpha" type="matrix" values="0 0 0 0 0 0 0 0 0 0 0 0 0 0 0 0 0 0 127 0" result="hardAlpha"/>
<feOffset dy="4"/>
<feGaussianBlur stdDeviation="3"/>
<feColorMatrix type="matrix" values="0 0 0 0 0.483333 0 0 0 0 0.473264 0 0 0 0 0.473264 0 0 0 0.15 0"/>
<feBlend mode="normal" in2="BackgroundImageFix" result="effect1_dropShadow"/>
<feBlend mode="normal" in="SourceGraphic" in2="effect1_dropShadow" result="shape"/>
</filter>
<clipPath id="clip0">
<rect width="24" height="24" fill="white" transform="translate(30 28) rotate(-180)"/>
</clipPath>
</defs>
</svg>
