<svg width="134" height="134" viewBox="0 0 134 134" fill="none" xmlns="http://www.w3.org/2000/svg">
<path d="M111.211 134H22.4852C10.0272 134 0 123.95 0 111.464V22.5363C0 10.05 10.0272 0 22.4852 0H111.515C123.973 0 134 10.05 134 22.5363V111.768C133.696 123.95 123.669 134 111.211 134Z" fill="white"/>
<path d="M111.057 18.2729H22.632C20.1412 18.2729 18.2729 20.1412 18.2729 22.632V74.9398C18.2729 77.4307 20.1412 79.2988 22.632 79.2988H59.372C60.6174 79.2988 61.5515 78.3648 61.5515 77.1193C61.5515 75.8739 60.6174 74.9398 59.372 74.9398H47.2291V64.6651H67.1559C68.09 64.6651 68.7127 64.0424 68.7127 63.1083C68.7127 62.1742 68.09 61.5515 67.1559 61.5515H62.1742V50.6541H66.5332C67.4672 50.6541 68.0899 50.0314 68.0899 49.0973C68.0899 48.1632 67.4672 47.5405 66.5332 47.5405H46.9178V36.643H75.2512C76.1853 36.643 76.808 36.0203 76.808 35.0863C76.808 34.1522 76.1853 33.5295 75.2512 33.5295H61.8628V22.632H95.178V33.5295H90.1963C89.2622 33.5295 88.6395 34.1522 88.6395 35.0863C88.6395 36.0203 89.2622 36.643 90.1963 36.643H111.057V47.5405H104.207C103.273 47.5405 102.65 48.1632 102.65 49.0973C102.65 50.0314 103.273 50.6541 104.207 50.6541H111.057V61.5515H105.453C104.519 61.5515 103.896 62.1742 103.896 63.1083C103.896 64.0424 104.519 64.6651 105.453 64.6651H111.057V74.6284H108.255C107.01 74.6284 106.075 75.5625 106.075 76.808C106.075 78.0534 107.01 78.9874 108.255 78.9874H111.057C113.548 78.9874 115.727 76.8079 115.727 74.3171V22.3206C115.416 20.1411 113.548 18.2729 111.057 18.2729ZM27.3024 22.632V33.2181H22.632V22.632H27.3024ZM22.632 61.5515V50.6541H27.3024V61.5515H22.632ZM43.8042 74.9398H22.632V64.6651H43.8042V74.9398ZM58.7493 61.5515H30.4159V50.6541H58.7493V61.5515ZM43.8042 47.5405H22.632V36.643H43.8042V47.5405ZM58.7493 33.5295H30.4159V22.632H58.7493V33.5295ZM98.6029 33.5295V22.632H111.057V33.5295H98.6029Z" fill="#3A99AF"/>
<path d="M100.782 72.1372C101.716 69.9577 101.405 67.1555 100.16 64.6647C99.5369 63.7306 98.9141 62.7965 98.2914 62.1737L101.716 55.0126C102.028 54.0785 102.028 53.1445 101.716 52.2104C101.405 51.2763 100.782 50.6536 99.8482 50.0309L95.4892 48.1627C94.5552 47.8514 93.6211 47.8514 92.6871 48.1627C91.753 48.4741 91.1302 49.0968 90.5075 50.0309L87.0826 57.192C86.1485 57.192 84.9031 57.192 83.969 57.5034C81.1668 58.1261 78.9873 59.6829 77.7419 61.8624C75.5624 61.2397 73.383 62.1738 72.4489 64.3533L56.8811 97.9797C56.2584 99.2251 56.2584 100.159 56.8811 101.405C57.1925 102.65 58.1265 103.584 59.3719 103.895L80.8555 113.859C81.4782 114.17 82.1009 114.17 82.7236 114.17C83.3463 114.17 83.6577 114.17 84.2804 113.859C85.5258 113.548 86.4599 112.614 86.7712 111.368L102.339 77.7416C102.962 76.4961 102.962 75.562 102.339 74.3166C102.028 73.3825 101.405 72.7599 100.782 72.1372ZM93.3097 51.2763C93.3097 50.9649 93.9325 50.9649 93.9325 50.9649L98.2914 52.8331C98.6028 52.8331 98.6028 53.4558 98.6028 53.4558L95.4892 59.6829C94.5552 59.0602 93.9324 58.7489 92.9983 58.1262C92.0643 57.8148 91.1302 57.5034 90.1962 57.192L93.3097 51.2763ZM84.5918 60.3056C86.7713 59.9942 89.2621 60.3056 91.7529 61.2397C94.2438 62.4851 96.112 64.0419 97.046 66.2214C97.9801 67.7782 97.98 69.335 97.6687 70.5804L80.5441 62.4851C81.4782 61.5511 83.035 60.6169 84.5918 60.3056ZM82.4122 109.5L60.6173 99.2251L76.4965 65.5987L97.9801 75.8734L82.4122 109.5Z" fill="#3A99AF"/>
<path d="M88.3277 46.2949C88.6391 46.2949 88.6391 46.2949 88.9505 46.2949C89.8845 45.9836 90.1959 45.0495 89.8845 44.1155L84.2801 31.6612C83.9688 30.7272 83.0347 30.4157 82.1006 30.7271C81.1665 31.0385 80.8552 31.9726 81.1666 32.9066L86.7709 45.3609C87.0823 45.9836 87.705 46.2949 88.3277 46.2949Z" fill="#3A99AF"/>
<path d="M69.9581 38.8227C69.3354 39.4454 69.6467 40.3795 70.2695 41.0022L83.3464 49.7201C83.6578 50.0315 83.9691 50.0315 84.2805 50.0315C84.9032 50.0315 85.2145 49.7201 85.5259 49.4088C86.1486 48.7861 85.8372 47.852 85.2145 47.2293L72.1376 38.5113C71.5149 37.8886 70.5808 38.2 69.9581 38.8227Z" fill="#3A99AF"/>
<path d="M69.0239 53.1447C69.0239 54.0787 69.6466 54.7015 70.5807 54.7015H82.7236C83.6576 54.7015 84.2804 54.0787 84.2804 53.1447C84.2804 52.2106 83.6576 51.5879 82.7236 51.5879H70.5807C69.6466 51.5879 69.0239 52.2106 69.0239 53.1447Z" fill="#3A99AF"/>
</svg>
