<svg width="32" height="32" viewBox="0 0 32 32" fill="none" xmlns="http://www.w3.org/2000/svg">
<g clip-path="url(#clip0)">
<path d="M30.9153 0H1.08475C0.542373 0 0 0.433898 0 1.08475V18.6576C0 19.2 0.433898 19.7424 1.08475 19.7424H14.4271C14.7525 19.7424 14.9695 19.5254 14.9695 19.2C14.9695 18.8746 14.7525 18.6576 14.4271 18.6576H6.94237V16.0542H15.9458C16.2712 16.0542 16.4881 15.8373 16.4881 15.5119C16.4881 15.1864 16.2712 14.9695 15.9458 14.9695H13.2339V12.3661H19.0915C19.417 12.3661 19.6339 12.1492 19.6339 11.8237C19.6339 11.4983 19.417 11.2814 19.0915 11.2814H6.8339V8.67797H16.3797C16.7051 8.67797 16.922 8.46102 16.922 8.13559C16.922 7.81017 16.7051 7.59322 16.3797 7.59322H13.2339V4.98983H18.0068C18.3322 4.98983 18.5492 4.77288 18.5492 4.44746C18.5492 4.12203 18.3322 3.90508 18.0068 3.90508H6.8339V1.30169H30.8068V3.90508H22.9966C22.6712 3.90508 22.4542 4.12203 22.4542 4.44746C22.4542 4.77288 22.6712 4.98983 22.9966 4.98983H24.9492V7.2678C24.9492 7.59322 25.1661 7.81017 25.4915 7.81017C25.8169 7.81017 26.0339 7.59322 26.0339 7.2678V4.98983H30.8068V7.59322H27.5525C27.2271 7.59322 27.0102 7.81017 27.0102 8.13559C27.0102 8.46102 27.2271 8.67797 27.5525 8.67797H30.8068V11.2814H28.6373C28.3119 11.2814 28.0949 11.4983 28.0949 11.8237C28.0949 12.1492 28.3119 12.3661 28.6373 12.3661H30.8068V14.9695H29.2881C28.9627 14.9695 28.7458 15.1864 28.7458 15.5119C28.7458 15.8373 28.9627 16.0542 29.2881 16.0542H30.9153V18.6576H29.6136C29.2881 18.6576 29.0712 18.8746 29.0712 19.2C29.0712 19.5254 29.2881 19.7424 29.6136 19.7424H30.9153C31.4576 19.7424 32 19.3085 32 18.6576V1.08475C32 0.542373 31.4576 0 30.9153 0ZM5.9661 18.6576H1.08475V16.0542H5.85763L5.9661 18.6576ZM12.2576 14.9695H1.08475V12.3661H12.2576V14.9695ZM5.9661 11.1729H1.08475V8.56949H5.85763L5.9661 11.1729ZM12.2576 7.48475H1.08475V4.88136H12.2576V7.48475ZM5.9661 3.79661H1.08475V1.19322H5.85763L5.9661 3.79661Z" fill="white"/>
<path d="M17.6812 14.9694L13.1253 27.0101C12.7999 27.8779 13.2338 28.7457 13.9931 29.0711C22.0202 32.1084 21.4779 31.9999 21.9117 31.9999C22.5626 31.9999 23.2134 31.566 23.4304 31.0236C28.0948 18.6575 27.444 20.3931 27.9863 18.983C28.2033 18.3321 27.9863 17.6813 27.5524 17.2474C27.9863 15.8372 27.5524 14.2101 26.4677 13.2338L27.227 11.1728C27.3355 10.7389 27.3355 10.4135 27.227 9.97958C27.1185 9.54568 26.7931 9.32873 26.3592 9.22026L25.3829 8.89483C25.0575 8.78636 24.6236 8.78636 24.1897 8.89483C23.7558 9.00331 23.5389 9.32873 23.4304 9.76263L22.6711 11.8236C21.1524 11.8236 19.8507 12.6914 19.1999 14.1016C18.549 13.9931 17.8982 14.427 17.6812 14.9694ZM27.0101 18.5491L22.4541 30.5898C22.3456 30.8067 22.0202 31.0236 21.8033 30.9152L14.427 28.0948C14.2101 27.9864 13.9931 27.6609 14.1016 27.444C17.7897 17.7897 16.705 20.6101 18.6575 15.4033C18.6575 15.2948 18.766 15.1864 18.9829 15.0779C19.1999 14.9694 19.1999 14.9694 19.4168 15.0779C25.7084 17.4643 26.5762 17.7897 26.7931 17.8982C27.0101 18.0067 27.1185 18.3321 27.0101 18.5491ZM24.5151 9.97958C24.5151 9.8711 24.6236 9.76263 24.7321 9.76263C24.8406 9.76263 24.949 9.65415 25.0575 9.76263C26.0338 10.0881 26.1423 10.0881 26.2507 10.4135C26.3592 10.7389 26.3592 10.6304 25.5999 12.583C25.166 12.366 24.6236 12.1491 24.1897 12.0406C24.0812 12.0406 23.9728 11.9321 23.8643 11.9321L24.5151 9.97958ZM23.7558 13.0169C24.2982 13.2338 24.8406 13.4508 25.3829 13.6677C25.5999 13.7762 25.5999 13.8847 25.7084 13.8847C26.5762 14.5355 27.0101 15.6203 26.6846 16.705L20.2846 14.3186C20.9355 13.0169 22.4541 12.4745 23.7558 13.0169Z" fill="white"/>
<path d="M17.6813 8.02696C17.5728 8.2439 17.6813 8.56933 18.0067 8.6778L22.2372 10.3049C22.4542 10.4134 22.7796 10.3049 22.8881 9.9795C22.9966 9.76255 22.8881 9.43713 22.5627 9.32865L18.4406 7.70153C18.3322 7.59306 18.1152 7.70153 18.0067 7.70153C17.8983 7.70153 17.7898 7.81001 17.6813 8.02696Z" fill="white"/>
<path d="M23.1051 8.46093C23.3221 8.46093 23.4306 8.35246 23.539 8.13551C23.6475 7.91856 23.6475 7.70161 23.539 7.59313L20.3933 3.14568C20.1763 2.92873 19.8509 2.82025 19.634 3.0372C19.417 3.25415 19.3085 3.57957 19.5255 3.79652L22.6712 8.24398C22.7797 8.35246 22.9967 8.46093 23.1051 8.46093Z" fill="white"/>
</g>
<defs>
<clipPath id="clip0">
<rect width="32" height="32" fill="white"/>
</clipPath>
</defs>
</svg>
