<svg width="134" height="134" viewBox="0 0 134 134" fill="none" xmlns="http://www.w3.org/2000/svg">
<path d="M128.525 43.078C125.998 41.4991 123.156 40.5517 120.314 40.8675L125.051 29.1835C125.683 27.9203 125.367 26.6571 125.051 25.394C124.419 24.1308 123.472 23.1835 122.525 22.8677L75.4727 4.55214C74.2095 3.92057 72.9464 4.23635 71.6832 4.55214C70.4201 5.18371 69.4727 6.13112 69.157 7.07848L61.8939 25.394V17.1836C61.8939 14.0257 59.3676 11.4995 56.2097 11.4995H5.6841C2.52624 11.4995 0 14.0257 0 17.1836V65.8145C0 67.0776 0.315747 68.025 0.947317 68.9723C0.315747 69.9197 0 71.1828 0 72.1302V122.656C0 125.814 2.52624 128.34 5.6841 128.34H53.9993C55.2624 128.34 56.5256 128.024 57.1572 127.393C58.1045 128.024 59.3677 128.34 60.315 128.34H110.841C113.999 128.34 116.525 125.814 116.525 122.656V74.3407C116.525 71.1829 113.999 68.6566 110.841 68.6566H109.262L112.104 61.7093C113.367 62.9725 114.946 64.2356 116.525 64.8672C119.998 66.1303 124.104 66.1303 127.577 63.9198C131.051 62.0251 133.261 58.5514 133.893 54.762C134.525 50.6568 132.314 45.9201 128.525 43.078ZM4.73678 17.1836C4.73678 16.552 5.05253 16.2362 5.6841 16.2362H56.2097C56.8413 16.2362 57.1572 16.552 57.1572 17.1836V37.3938L51.473 51.9199C50.8414 53.1831 51.1572 54.4463 51.473 55.7094C52.1045 56.9725 53.0519 57.9199 53.9993 58.2356L56.8414 59.4988V65.4988C56.8414 66.1303 56.5255 66.7619 55.8939 66.7619H53.6835C53.6835 66.7619 53.6835 66.7619 53.3677 66.7619H42.3152C42.9468 65.183 43.2625 63.604 43.2625 62.0251C43.2625 57.9199 41.3679 54.1304 38.21 51.6041C35.0522 49.0779 30.947 48.1305 26.8418 49.0779C21.7892 50.0252 17.9997 54.1305 16.7366 58.8673C16.105 61.3935 16.105 64.2356 17.0524 66.7619H5.6841C5.05253 66.7619 4.73678 66.446 4.73678 65.8145V17.1836ZM70.7359 63.604C71.3675 62.9725 71.6833 62.3409 71.3675 61.3935C71.0517 59.4988 71.0517 56.6568 72.9464 54.1305C74.8411 51.2884 78.6305 49.7094 82.1042 50.341C84.9462 50.6568 87.4725 52.5515 89.0514 55.0778C90.6303 57.6041 90.6304 60.4462 89.683 63.2882C89.0514 64.8672 87.7883 66.446 86.5252 67.3934C85.8936 68.025 85.5778 68.6566 85.5778 69.6039C85.5778 70.5513 86.2094 71.1829 86.841 71.4987L93.1567 74.0249C94.104 75.6038 95.0514 77.8144 94.4198 80.9722C93.7882 84.1301 90.9461 86.6564 88.1041 87.2879C85.262 87.9195 82.7358 87.2879 80.5253 85.709C78.3148 84.1301 77.3674 81.6038 77.3674 79.0775C77.3674 77.4986 77.999 75.9196 78.9463 74.3407C79.5779 73.3934 79.5779 72.1302 78.9463 71.1829C78.3148 70.2355 77.3673 69.6039 76.42 69.6039H61.2623C61.8939 68.6566 62.2096 67.7092 62.2096 66.4461V62.0251L68.8412 64.5514C69.1569 64.2356 70.1043 63.9198 70.7359 63.604ZM54.6308 122.972C54.6308 123.603 54.3151 123.919 53.6835 123.919H5.36829C4.73672 123.919 4.42098 123.603 4.42098 122.972V72.446C4.42098 71.8144 4.73672 71.4987 5.36829 71.4987H19.5786C20.526 71.4987 21.7892 70.8671 22.105 69.9197C22.7365 68.9724 22.4208 67.7092 22.105 66.7619C21.1576 65.183 20.2103 62.9724 20.8419 59.8146C21.4734 56.6567 24.3155 54.1304 27.1576 53.4989C29.9996 52.8673 32.5259 53.4989 34.7364 55.0778C36.9469 56.6567 37.8942 59.183 37.8942 61.7093C37.8942 63.2882 37.2627 64.8672 36.3153 66.4461C35.6837 67.3934 35.6837 68.6566 36.3153 69.6039C36.9469 70.5513 37.8942 71.1829 38.8416 71.1829H48.3151H53.3677C53.9993 71.1829 54.315 71.4986 54.315 72.1302V79.0775V86.0248C48.9467 84.1301 42.9468 85.709 39.1574 90.13C36.6311 93.2878 35.6838 97.3931 36.6311 101.498C37.5785 106.551 41.6836 110.34 46.4204 111.603C48.9467 112.235 51.7887 112.235 54.315 111.288V114.761V122.972H54.6308ZM111.896 74.6565C112.528 74.6565 111.896 73.3725 111.896 74.0041L111.788 122.972C111.788 123.603 111.472 123.919 110.841 123.919H60.315C59.6834 123.919 59.3676 123.603 59.3676 122.972V108.761C59.3676 107.814 58.736 106.551 57.7887 106.235C57.4729 105.919 56.8413 105.919 56.2097 105.919C55.5782 105.919 54.9466 106.235 54.6308 106.551C53.0519 107.498 50.8414 108.446 47.6836 107.814C44.5257 107.182 41.9995 104.34 41.3679 101.498C40.7363 98.6562 41.3679 96.1299 42.9468 93.9194C45.7889 90.4458 50.8414 89.8142 54.315 92.0247C55.2624 92.6563 56.5255 92.6563 57.4729 92.0247C58.4202 91.3931 59.0518 90.4457 59.0518 89.4984V75.288C59.0518 74.6565 59.3676 74.3407 59.9992 74.3407H72.6306C71.999 75.9196 71.6832 77.4986 71.6832 79.0775C71.6832 83.1827 73.5779 86.9721 76.7358 89.4984C79.8936 92.0247 83.9989 92.9721 88.1041 92.0247C93.1566 91.0774 96.9461 86.9721 98.2093 82.2354C98.525 80.3406 98.8408 78.446 98.2093 76.5513L100.42 77.4986C101.051 77.8144 101.683 77.8144 102.314 77.8144C102.946 77.8144 103.578 77.8144 104.209 77.4986C105.472 76.867 106.42 75.9197 106.735 74.9723V74.6565H110.841H111.896ZM130.419 54.762C130.104 57.6041 128.209 60.1304 125.683 61.7093C123.156 63.2882 120.314 63.2883 117.472 62.3409C115.893 61.7093 114.314 60.4462 113.367 58.8673C112.735 58.2357 112.104 57.9198 111.156 57.9198C110.209 57.9198 109.578 58.5515 109.262 59.1831L103.893 72.446C103.578 72.7618 103.262 73.0776 102.946 73.3934C102.63 73.7092 101.999 73.7092 101.683 73.3934L88.7357 68.3408C89.9988 67.0777 91.262 65.4988 91.8935 63.9198C93.1567 60.4462 93.1566 56.341 90.9461 52.8674C88.7356 49.3937 85.5778 47.1832 81.7884 46.5516C77.0516 45.9201 72.3148 47.8147 69.4728 51.6041C67.8938 54.1304 66.9464 56.9725 67.2622 59.8146L54.315 54.762C53.9992 54.4462 53.6835 54.1305 53.3677 53.8147C53.0519 53.4989 53.0519 52.8673 53.3677 52.5515L71.0517 7.70999C71.3675 7.39421 71.6832 7.07846 71.999 6.76267C72.3148 6.44689 72.9463 6.44689 73.2621 6.76267L120.314 25.0782C120.63 25.394 120.946 25.7098 121.262 26.0256C121.577 26.3414 121.577 26.9729 121.262 27.2887L115.893 40.5516C115.577 41.1832 115.577 42.1306 116.209 42.7622C116.841 43.3938 117.472 43.7096 118.419 43.3938C120.314 43.078 123.156 43.078 125.683 44.9727C129.472 47.8148 131.051 51.2884 130.419 54.762Z" fill="white"/>
</svg>
