<svg width="134" height="134" viewBox="0 0 134 134" fill="none" xmlns="http://www.w3.org/2000/svg">
<path d="M111.211 134H22.4852C10.0272 134 0 123.95 0 111.464V22.5363C0 10.05 10.0272 0 22.4852 0H111.515C123.973 0 134 10.05 134 22.5363V111.768C133.696 123.95 123.669 134 111.211 134Z" fill="white"/>
<path d="M111.765 49.8527C110.291 48.673 108.226 48.0831 106.457 48.0831C106.457 48.0831 106.457 48.0831 106.162 48.0831L109.406 39.8252C109.701 38.9404 109.701 37.7607 109.406 36.8759C109.111 35.9911 108.226 35.1063 107.341 34.8113L73.4245 21.5396C72.5397 21.2446 71.36 21.2446 70.4752 21.5396C69.5904 21.8345 68.7057 22.7193 68.4108 23.6041L63.6919 35.4012V30.9773C63.6919 28.6179 61.6274 26.5534 59.268 26.5534H22.6969C20.3374 26.5534 18.2729 28.6179 18.2729 30.9773V66.0738C18.2729 66.9585 18.5678 67.8434 18.8628 68.4332C18.2729 69.0231 18.2729 69.9079 18.2729 70.7926V107.364C18.2729 109.723 20.3374 111.788 22.6969 111.788H57.4984C58.3832 111.788 59.268 111.493 59.8579 111.198C60.4477 111.788 61.3325 111.788 62.2173 111.788H98.7884C101.148 111.788 103.212 109.723 103.212 107.364V72.5622C103.212 70.2028 101.148 68.1383 98.7884 68.1383H97.9036L99.6732 64.0093C100.558 64.8941 101.738 65.4839 102.622 66.0738C105.277 67.2535 108.226 66.9586 110.88 65.484C113.24 64.0093 115.009 61.6498 115.599 58.7006C116.189 55.4563 114.714 51.9172 111.765 49.8527ZM103.802 63.7144C102.622 63.1245 101.738 62.5346 100.853 61.3549C100.558 60.765 99.9681 60.4701 99.3783 60.4701C99.3783 60.4701 99.3782 60.4701 99.0833 60.4701C98.4935 60.4701 97.9036 61.06 97.6087 61.6498L93.7746 71.3825C93.7746 71.6775 93.4797 71.6774 93.1847 71.9723C92.8898 71.9723 92.5949 71.9723 92.5949 71.9723L83.747 68.4332C84.6318 67.5485 85.2217 66.3687 85.8115 65.484C86.9912 62.8296 86.6963 59.8803 85.2216 57.2259C83.747 54.8665 81.3876 53.0969 78.4383 52.507C77.8485 52.507 77.5535 52.507 76.9637 52.507C76.6688 52.507 76.3738 52.507 75.784 52.507C73.7195 52.802 71.655 53.6868 70.1804 55.4563C69.8854 55.7513 69.5905 56.0462 69.2955 56.3412C68.1158 58.1107 67.5259 59.8803 67.5259 61.9448L58.6781 58.4056C58.3832 58.4056 58.3832 58.1107 58.0883 57.8158C58.0883 57.5209 58.0883 57.2259 58.0883 57.2259L70.7702 24.7838C70.7702 24.4889 71.0651 24.4889 71.3601 24.194C71.655 24.194 71.9499 24.194 71.9499 24.194L105.867 37.4658C106.162 37.4658 106.162 37.7606 106.457 38.0556C106.457 38.3505 106.457 38.6455 106.457 38.6455L102.622 48.3781C102.328 48.9679 102.622 49.8527 102.917 50.1476C103.507 50.7375 104.097 51.0325 104.687 50.7375C105.867 50.4426 107.931 50.4426 109.701 51.9172C111.765 53.3919 112.65 55.7513 112.355 58.1107C112.06 60.1752 110.88 61.9447 109.111 62.8295C107.636 64.3042 105.572 64.3042 103.802 63.7144ZM60.4477 95.2717C59.5629 94.9767 58.6781 94.9767 57.7933 95.2717C56.9086 95.8615 55.139 96.4514 53.0745 96.1565C51.01 95.5666 49.2404 93.7971 48.6505 91.7326C48.3556 89.963 48.6505 87.8985 49.8302 86.7188C51.5998 84.3593 55.139 83.7695 57.7933 85.5391C58.6781 86.1289 59.5629 86.1289 60.4477 85.5391C61.3325 85.2441 61.6274 84.3593 61.6274 83.4745V73.152C61.6274 72.8571 61.9223 72.8572 61.9223 72.8572H70.7702C70.4752 73.742 70.1804 74.9217 70.1804 75.8065C70.1804 78.7557 71.655 81.705 74.0144 83.4745C76.3738 85.539 79.618 86.1289 82.5673 85.5391C86.1064 84.6543 89.0557 81.9999 89.9405 78.1658C90.2354 76.9861 90.2355 75.8065 90.2355 74.3318L91.4152 74.9216C92.005 75.2165 92.2999 75.2166 92.8898 75.2166C93.4797 75.2166 94.0695 75.2165 94.3644 74.9216C95.2492 74.6267 96.134 73.742 96.429 72.8572H98.7884C99.0833 72.8572 99.0833 73.152 99.0833 73.152V107.954C99.0833 108.249 98.7884 108.249 98.7884 108.249H62.2173C61.9223 108.249 61.9223 107.954 61.9223 107.954V97.3362C61.9223 96.4514 61.3325 95.5666 60.4477 95.2717ZM70.4752 63.1245C70.1803 61.9448 70.1804 59.8803 71.655 58.1107C73.1297 56.0462 75.489 55.1614 77.8484 55.4563C79.9129 55.7513 81.6825 56.931 82.5673 58.7006C83.4521 60.4701 83.747 62.5346 82.8623 64.3042C82.2724 65.4839 81.6826 66.3687 80.5029 67.2535C79.913 67.5484 79.618 68.4332 79.618 69.023C79.618 69.6129 80.2079 70.2028 80.7977 70.4977L85.2216 72.2673C85.8115 73.1521 86.4014 74.9217 86.1065 76.9862C85.5166 79.0507 83.7471 80.8202 81.6826 81.4101C79.913 81.705 77.8484 81.4101 76.6687 80.2304C75.1941 79.0507 74.3093 77.2811 74.3093 75.5115C74.3093 74.3318 74.6042 73.1521 75.1941 72.2673C75.784 71.3825 75.784 70.4977 75.1941 69.6129C74.8992 68.7282 74.0144 68.4332 73.1297 68.4332H62.5122C62.8071 67.8434 63.102 67.2535 63.102 66.3687V63.4194L67.5259 65.189C68.1158 65.4839 69.0006 65.189 69.2955 64.8941C70.4752 64.5991 70.4752 64.0093 70.4752 63.1245ZM59.5629 45.7237L55.4339 56.3412C55.139 57.2259 55.139 58.4057 55.4339 59.2904C55.7289 60.1752 56.6136 61.06 57.4984 61.3549L59.5629 62.2397V66.3687C59.5629 66.6636 59.268 66.9586 59.268 66.9586H57.7933H49.8302C50.1252 66.0738 50.4201 64.8941 50.4201 64.0093C50.4201 61.06 48.9455 58.1107 46.5861 56.3412C44.2267 54.5716 40.9824 53.6868 38.0331 54.2766C34.494 55.1614 31.5447 58.1107 30.6599 61.6498C30.07 63.4194 30.365 65.4839 30.9548 67.2535H22.9918C22.6969 67.2535 22.6969 66.9586 22.6969 66.9586V31.8621C22.6969 31.5671 22.9918 31.5672 22.9918 31.5672H59.5629C59.8579 31.5672 59.8579 31.8621 59.8579 31.8621V45.7237H59.5629ZM22.107 71.0876C22.107 70.7927 22.4019 70.7926 22.4019 70.7926H32.7244C33.6092 70.7926 34.494 70.2028 34.789 69.6129C35.0839 68.7282 35.0839 67.8434 34.789 66.9586C34.1991 66.0738 33.6092 64.3042 33.9041 62.2397C34.494 60.1752 36.2635 58.4057 38.328 57.8158C40.0976 57.5209 42.1621 57.8158 43.3419 58.9955C44.8165 60.1752 45.7013 61.9448 45.7013 63.7144C45.7013 64.8941 45.4064 66.0738 44.8165 66.9586C44.2266 67.8434 44.2266 68.7282 44.8165 69.6129C45.1114 70.4977 45.9962 70.7926 46.881 70.7926H53.3694H57.4984C57.7933 70.7926 57.7933 71.0876 57.7933 71.0876V76.3963V80.8202C53.9593 79.6405 49.5353 80.8202 46.881 84.0644C45.1114 86.4238 44.2266 89.668 44.8165 92.6173C45.7013 96.1565 48.3556 99.1057 52.1897 99.9905C53.9593 100.285 56.0238 100.285 57.7933 99.6956V101.465V107.659C57.7933 107.954 57.4984 107.954 57.4984 107.954H22.6969C22.4019 107.954 22.4019 107.659 22.4019 107.659V71.0876H22.107Z" fill="#3A99AF"/>
</svg>
