<svg width="17" height="32" viewBox="0 0 17 32" fill="none" xmlns="http://www.w3.org/2000/svg">
<path d="M14.7109 0H13.7592H3.28203H2.32826C1.05793 0 0 1.08773 0 2.39422V29.6058C0 31.0206 1.05793 32 2.32826 32H14.6047C15.9813 32 16.933 30.9123 16.933 29.6058V28.6264V17.1971V2.39422C17.0392 1.08773 15.9813 0 14.7109 0ZM4.23376 0.979362H12.6992V1.41486C12.6992 1.742 12.4868 1.85036 12.2744 1.85036H4.76273C4.50948 1.85036 4.23376 1.742 4.23376 1.41486V0.979362ZM16.0875 28.6264V29.6058C16.0875 30.4768 15.4523 31.0206 14.7109 31.0206H2.32826C1.48069 31.0206 0.951729 30.3684 0.951729 29.6058V2.39422C0.951729 1.52323 1.5869 0.979362 2.32826 0.979362H3.27999V1.41486C3.27999 2.28586 3.91516 2.82972 4.65653 2.82972H12.2765C13.1241 2.82972 13.653 2.1775 13.653 1.41486V0.979362H14.6047C15.4523 0.979362 15.9813 1.63159 15.9813 2.39422V17.1971L16.0875 28.3545V28.6264Z" fill="white"/>
<path d="M14.6048 9.36018L8.46559 5.76782L2.43457 9.36018V16.5449L8.46763 20.2456L14.5007 16.6533V9.36018H14.6048ZM13.3345 9.68731L8.46559 12.517L3.7049 9.68731L8.46763 6.74923L13.3345 9.68731ZM3.2801 10.3395L8.14903 13.2797V19.0475L3.2801 16.1094V10.3395ZM8.89039 19.0475V13.2797L13.7593 10.3416V16.1094L8.89039 19.0475Z" fill="white"/>
<path d="M4.72019 22.6868H5.40642L8.02265 29.0987H7.1567L6.39899 27.2197H3.70924L2.9597 29.0987H2.09375L4.72019 22.6868ZM6.21723 26.5879L5.06331 23.6253L3.87262 26.5879H6.21723ZM8.87635 29.0987V22.6868H11.6192C11.901 22.6868 12.1604 22.7461 12.3953 22.8668C12.6302 22.9813 12.8344 23.1387 13.008 23.337C13.1816 23.5292 13.3184 23.75 13.4144 23.9954C13.5104 24.2366 13.5594 24.484 13.5594 24.7355C13.5594 25.0299 13.5022 25.31 13.3879 25.5758C13.2796 25.8416 13.1224 26.0666 12.9181 26.2526C12.72 26.4387 12.4852 26.5695 12.2135 26.6411L13.7657 29.0966H12.8466L11.3843 26.7944H9.6892V29.0966H8.87635V29.0987ZM9.6892 26.0747H11.6294C11.852 26.0747 12.044 26.0154 12.2074 25.8948C12.3749 25.768 12.5056 25.6024 12.5954 25.398C12.6914 25.1935 12.7404 24.9727 12.7404 24.7396C12.7404 24.4983 12.6853 24.2796 12.5771 24.0812C12.4688 23.8768 12.3279 23.7132 12.1523 23.5926C11.9787 23.472 11.7846 23.4127 11.5743 23.4127H9.6892V26.0747Z" fill="white"/>
</svg>
