<svg width="32" height="32" viewBox="0 0 32 32" fill="none" xmlns="http://www.w3.org/2000/svg">
<path d="M29.7478 20.8829C30.3604 19.2523 30.7027 17.4955 30.7027 15.6577C30.7027 7.45949 24.0271 0.783813 15.8289 0.783813C7.63067 0.783813 0.954993 7.45949 0.954993 15.6577C0.954993 17.6036 1.33337 19.4595 2.01806 21.1712C0.738777 22.5946 0.405443 24.7298 1.35139 26.5135L2.39643 28.4775C3.24328 30.0631 4.87391 30.964 6.5586 30.964C7.03607 30.964 7.51355 30.8919 7.98202 30.7388C8.37842 31.0451 8.87391 31.2162 9.36941 31.2162C9.72076 31.2162 10.0811 31.1352 10.4054 30.955C11.4145 30.4144 11.8469 29.2072 11.4505 28.1712C11.4145 28.0901 11.3784 28.009 11.3334 27.928L6.72977 19.2793C6.71175 19.2433 6.68472 19.2072 6.6667 19.1712C6.25229 18.4775 5.51355 18.0901 4.74779 18.0901C4.38743 18.0901 4.03607 18.1712 3.70274 18.3514C3.22526 18.6036 2.87391 19.018 2.68472 19.4865C2.33337 18.2703 2.13517 16.982 2.13517 15.6577C2.14418 8.10814 8.28832 1.973 15.8289 1.973C23.3694 1.973 29.5135 8.10814 29.5135 15.6577C29.5135 16.8199 29.3694 17.946 29.0991 19.018C28.9009 18.7478 28.6487 18.5135 28.3424 18.3514C28.009 18.1712 27.6487 18.0901 27.2973 18.0901C26.5316 18.0901 25.7928 18.4865 25.3784 19.1712C25.3514 19.2072 25.3334 19.2433 25.3153 19.2793L20.7117 27.928C20.6667 28.009 20.6307 28.0901 20.5946 28.1712C20.1982 29.2072 20.6217 30.4144 21.6397 30.955C21.973 31.1352 22.3244 31.2162 22.6757 31.2162C23.1712 31.2162 23.6667 31.0451 24.0631 30.7388C24.5316 30.8919 25.009 30.964 25.4865 30.964C27.1712 30.964 28.8018 30.0631 29.6487 28.4775L30.6937 26.5135C31.7027 24.6036 31.2613 22.2973 29.7478 20.8829ZM3.81986 19.8829C3.90995 19.6847 4.07211 19.5135 4.27031 19.4054C4.42346 19.3244 4.58562 19.2883 4.75679 19.2883C4.87391 19.2883 4.98202 19.3153 5.08112 19.3514C5.31535 19.4325 5.52256 19.5766 5.64869 19.7928L5.68472 19.8469L5.69373 19.8649L7.00905 22.3244L10.0811 28.0901L10.2973 28.5045C10.3154 28.5406 10.3334 28.5856 10.3514 28.6307C10.4685 28.946 10.4145 29.2973 10.2433 29.5676C10.1442 29.7117 10.0181 29.8379 9.85589 29.928C9.74778 29.982 9.63067 30.018 9.51355 30.0271C9.46851 30.0361 9.42346 30.0451 9.37842 30.0451C9.14418 30.0451 8.90995 29.964 8.72076 29.8199C8.60364 29.7298 8.51355 29.6126 8.44148 29.4865L8.34238 29.3063L4.00004 21.1532L3.82887 20.8379C3.77481 20.7388 3.73878 20.6397 3.72977 20.5406V20.5226V20.5045C3.69373 20.2703 3.73878 20.0631 3.81986 19.8829ZM7.21625 29.7027C7.00004 29.7478 6.78382 29.7748 6.56761 29.7748C5.2613 29.7748 4.0631 29.0631 3.4595 27.9189L2.41445 25.955C1.68472 24.5946 1.964 22.937 3.03607 21.8469L7.21625 29.7027ZM23.7027 29.2883L23.6036 29.4685C23.5316 29.6036 23.4415 29.7117 23.3244 29.8018C23.1442 29.946 22.9009 30.0271 22.6667 30.0271C22.6217 30.0271 22.5766 30.018 22.5316 30.009C22.4144 29.991 22.2973 29.964 22.1892 29.9099C22.0271 29.8199 21.8919 29.6937 21.8018 29.5496C21.6217 29.2793 21.5766 28.937 21.6937 28.6126C21.7117 28.5676 21.7298 28.5316 21.7478 28.4865L21.964 28.0721L25.0361 22.3063L26.3514 19.8469L26.3604 19.8289L26.3964 19.7748C26.5226 19.5586 26.7298 19.4054 26.964 19.3334C27.0721 19.2973 27.1802 19.2703 27.2883 19.2703C27.4595 19.2703 27.6217 19.3153 27.7748 19.3874C27.982 19.4955 28.1352 19.6667 28.2253 19.8649C28.3153 20.0451 28.3514 20.2523 28.3153 20.4685V20.4865V20.5045C28.3063 20.6036 28.2703 20.7027 28.2163 20.8018L28.0451 21.1171L23.7027 29.2883ZM29.6397 25.955L28.5946 27.9189C27.982 29.0631 26.7928 29.7748 25.4865 29.7748C25.2703 29.7748 25.0541 29.7478 24.8379 29.7027L29.0271 21.8379C30.0901 22.928 30.3604 24.5946 29.6397 25.955Z" fill="white"/>
</svg>
