<svg width="32" height="32" viewBox="0 0 32 32" fill="none" xmlns="http://www.w3.org/2000/svg">
<path d="M16 13.3999C15.3 13.3999 14.8 13.9999 14.8 14.5999V22.5999C14.8 23.2999 15.4 23.7999 16 23.7999C16.7 23.7999 17.2 23.1999 17.2 22.4999V14.4999C17.2 13.9999 16.7 13.3999 16 13.3999Z" fill="white"/>
<path d="M16 11.9C16.9 11.9 17.7 11.1 17.7 10.2C17.7 9.3 16.9 8.5 16 8.5C15.1 8.5 14.3 9.3 14.3 10.2C14.3 11.1 15.1 11.9 16 11.9Z" fill="white"/>
<path d="M16 32C7.2 32 0 24.8 0 16C0 7.2 7.2 0 16 0C24.8 0 32 7.2 32 16C32 24.8 24.8 32 16 32ZM16 2C8.3 2 2 8.3 2 16C2 23.7 8.3 30 16 30C23.7 30 30 23.7 30 16C30 8.3 23.7 2 16 2Z" fill="white"/>
</svg>
