<svg width="19" height="19" viewBox="0 0 19 19" fill="none" xmlns="http://www.w3.org/2000/svg">
<path d="M2.7832 19H16.2168C17.7515 19 19 17.7515 19 16.2168V2.7832C19 1.24853 17.7515 0 16.2168 0H2.7832C1.24853 0 0 1.24853 0 2.7832V16.2168C0 17.7515 1.24853 19 2.7832 19ZM1.11328 2.7832C1.11328 1.86243 1.86243 1.11328 2.7832 1.11328H16.2168C17.1376 1.11328 17.8867 1.86243 17.8867 2.7832V16.2168C17.8867 17.1376 17.1376 17.8867 16.2168 17.8867H2.7832C1.86243 17.8867 1.11328 17.1376 1.11328 16.2168V2.7832Z" fill="white"/>
<path d="M9.5 14.5098C12.2623 14.5098 14.5098 12.2623 14.5098 9.5C14.5098 6.73767 12.2623 4.49023 9.5 4.49023C6.73767 4.49023 4.49023 6.73767 4.49023 9.5C4.49023 12.2623 6.73767 14.5098 9.5 14.5098ZM9.5 5.60352C11.6486 5.60352 13.3965 7.35143 13.3965 9.5C13.3965 11.6486 11.6486 13.3965 9.5 13.3965C7.35143 13.3965 5.60352 11.6486 5.60352 9.5C5.60352 7.35143 7.35143 5.60352 9.5 5.60352Z" fill="white"/>
<path d="M15.0664 5.60352C15.9872 5.60352 16.7363 4.85437 16.7363 3.93359C16.7363 3.01282 15.9872 2.26367 15.0664 2.26367C14.1456 2.26367 13.3965 3.01282 13.3965 3.93359C13.3965 4.85437 14.1456 5.60352 15.0664 5.60352ZM15.0664 3.37695C15.3733 3.37695 15.623 3.62672 15.623 3.93359C15.623 4.24047 15.3733 4.49023 15.0664 4.49023C14.7595 4.49023 14.5098 4.24047 14.5098 3.93359C14.5098 3.62672 14.7595 3.37695 15.0664 3.37695Z" fill="white"/>
</svg>
