<svg width="134" height="134" viewBox="0 0 134 134" fill="none" xmlns="http://www.w3.org/2000/svg">
<path d="M127.636 45.2559L104.654 50.2059L112.786 36.0634C117.029 28.6386 117.029 19.4459 112.786 12.0211C108.544 4.59629 100.765 0 91.9261 0H90.1583C81.3193 0 73.5408 4.59629 69.2981 12.0211C65.0553 19.4459 65.0553 28.6386 69.2981 36.0634L88.3905 69.6518C89.0976 70.7125 89.8048 71.066 90.8655 71.066H92.6333L101.119 56.5699L127.282 50.9129V121.979L90.1583 128.343L50.2059 107.129C48.7916 106.422 47.0238 106.422 45.6096 106.776L5.30343 120.565V49.4987L47.7309 35.7098L59.3984 41.0132C60.8126 41.7203 62.2269 41.0132 62.934 39.599C63.6411 38.1847 62.9341 36.7705 61.5199 36.0634L49.8522 30.7599C48.4379 30.0528 47.0238 30.0528 45.6096 30.4064L2.82845 44.5488C1.06064 45.256 0 46.6702 0 48.7915V123.393C0 124.454 0.707103 125.515 1.41423 126.222C2.12135 126.929 3.53558 126.929 4.59626 126.575L47.3774 112.079H47.7309L87.6833 133.293C88.3905 133.646 89.4511 134 90.5118 134C90.8654 134 91.2191 134 91.5727 134L129.757 127.282C131.525 126.929 132.939 125.515 132.939 123.393V49.1451C132.939 48.0844 132.586 47.0238 131.525 46.3167C130.111 45.256 128.697 44.9023 127.636 45.2559ZM90.8655 63.6412L73.5409 33.5884C70.0052 27.5778 70.3588 20.5066 73.5409 14.8497C77.0765 8.8391 83.0872 5.30343 89.8049 5.30343H91.5727C98.2903 5.30343 104.301 8.8391 107.836 14.8497C111.372 20.8602 111.372 27.9314 107.836 33.5884L90.8655 63.6412Z" fill="white"/>
<path d="M49.145 42.7815C49.145 41.7208 48.4379 41.0137 47.3772 41.0137C46.3165 41.0137 45.6094 41.7208 45.6094 42.7815V49.1456C45.6094 50.2062 46.3165 50.9134 47.3772 50.9134C48.4379 50.9134 49.145 50.2062 49.145 49.1456V42.7815Z" fill="white"/>
<path d="M49.145 77.7839C49.145 76.7232 48.4379 76.0161 47.3772 76.0161C46.3165 76.0161 45.6094 76.7232 45.6094 77.7839V84.148C45.6094 85.2087 46.3165 85.9158 47.3772 85.9158C48.4379 85.9158 49.145 85.2087 49.145 84.148V77.7839Z" fill="white"/>
<path d="M47.3772 93.6938C46.3165 93.6938 45.6094 94.401 45.6094 95.4617V101.826C45.6094 102.886 46.3165 103.594 47.3772 103.594C48.4379 103.594 49.145 102.886 49.145 101.826V95.4617C49.145 94.401 48.4379 93.6938 47.3772 93.6938Z" fill="white"/>
<path d="M49.145 60.4597C49.145 59.399 48.4379 58.6919 47.3772 58.6919C46.3165 58.6919 45.6094 59.399 45.6094 60.4597V66.8238C45.6094 67.8845 46.3165 68.5916 47.3772 68.5916C48.4379 68.5916 49.145 67.8845 49.145 66.8238V60.4597Z" fill="white"/>
<path d="M88.7441 103.947C88.7441 105.008 89.4513 105.715 90.512 105.715C91.5726 105.715 92.2798 105.008 92.2798 103.947V97.9368C92.2798 96.8761 91.5726 96.1689 90.512 96.1689C89.4513 96.1689 88.7441 96.8761 88.7441 97.9368V103.947Z" fill="white"/>
<path d="M90.512 88.3909C91.5726 88.3909 92.2798 87.6838 92.2798 86.6231V80.6125C92.2798 79.5519 91.5726 78.8447 90.512 78.8447C89.4513 78.8447 88.7441 79.5519 88.7441 80.6125V86.6231C88.7441 87.3303 89.4513 88.3909 90.512 88.3909Z" fill="white"/>
<path d="M88.3906 121.272C88.3906 122.333 89.0977 123.04 90.1584 123.04C91.2191 123.04 91.9262 122.333 91.9262 121.272V115.261C91.9262 114.201 91.2191 113.494 90.1584 113.494C89.0977 113.494 88.3906 114.201 88.3906 115.261V121.272Z" fill="white"/>
<path d="M90.5122 13.0815C84.1481 13.0815 78.8447 18.3849 78.8447 24.7491C78.8447 31.1132 84.1481 36.4166 90.5122 36.4166C96.8763 36.4166 102.18 31.1132 102.18 24.7491C102.18 18.3849 96.8763 13.0815 90.5122 13.0815ZM90.5122 33.2345C85.9159 33.2345 82.3803 29.6989 82.3803 25.1026C82.3803 20.5063 85.9159 16.9706 90.5122 16.9706C95.1085 16.9706 98.6443 20.5063 98.6443 25.1026C98.6443 29.3454 95.1085 33.2345 90.5122 33.2345Z" fill="white"/>
</svg>
