<svg width="33" height="32" viewBox="0 0 33 32" fill="none" xmlns="http://www.w3.org/2000/svg">
<path d="M22.8256 1.73795e-05C19.512 -0.00757334 16.8737 2.4721 16.8721 5.95525C16.8713 5.97464 16.8713 5.99404 16.8721 6.01341C16.9604 6.99811 17.0165 8.04052 17.6977 9.61912C18.3789 11.1977 19.6546 13.3373 22.2209 16.8189C22.4953 17.2013 23.1559 17.2013 23.4302 16.8189C24.6716 15.1349 25.5978 13.7761 26.314 12.6316C27.9254 12.4352 29.4931 12.0987 31.0116 11.9105V27.5429C31.0116 28.0585 30.9088 28.3347 30.8256 28.4619C30.7423 28.589 30.6854 28.6301 30.4884 28.6712L21.814 30.474L12.3605 25.5773C12.3921 25.4919 12.408 25.4008 12.407 25.3098V24.5654C12.4161 24.1431 12.0011 23.7631 11.5814 23.8093C11.2157 23.8495 10.9107 24.1975 10.9186 24.5654V25.3098C10.9194 25.3686 10.9273 25.4273 10.9419 25.4842L1.98837 28.2408V12.2827C1.98837 11.5383 2.18619 11.5067 2.19767 11.5034C5.33683 10.5441 8.4775 9.57355 11.6163 8.60719L15.4535 10.3519C15.8097 10.5102 16.2777 10.3301 16.436 9.97386C16.5943 9.61759 16.4143 9.14937 16.0581 8.99103L11.9651 7.13001C11.8522 7.08124 11.7271 7.06105 11.6047 7.07185C11.5498 7.07371 11.495 7.08138 11.4419 7.09511C8.21063 8.06509 5.00202 9.11705 1.76744 10.0727C0.991882 10.3006 0.5 11.1718 0.5 12.2827V28.2873C0.5 28.9106 0.920709 29.4325 1.2907 29.6133C1.66069 29.7943 2 29.7761 2 29.7761C2.07095 29.7761 2.14167 29.7627 2.2093 29.7412L11.6047 26.845L21.3721 31.9162C21.5208 31.9936 21.6961 32.0187 21.8605 31.986L30.7907 30.125C31.2739 30.0242 31.765 29.7414 32.0698 29.2759C32.3746 28.8107 32.5 28.2374 32.5 27.5429V11.9105C32.5 11.095 31.8276 10.3126 30.9186 10.4217C29.6775 10.5706 28.4665 10.8145 27.2791 11.0032C27.5538 10.4951 27.774 10.035 27.9535 9.61912C28.6347 8.04052 28.6908 6.99811 28.7791 6.01341C28.7798 5.99403 28.7798 5.97462 28.7791 5.95525C28.7775 2.4721 26.1391 -0.00756218 22.8256 1.73795e-05ZM22.8256 1.48883C25.4295 1.48287 27.2783 3.1762 27.2907 5.93199C27.202 6.93997 27.1864 7.65083 26.593 9.02591C26.053 10.2775 24.8573 12.2219 22.8256 15.0509C20.7939 12.2219 19.5982 10.2775 19.0581 9.02591C18.4648 7.65083 18.4492 6.93997 18.3605 5.93199C18.3729 3.1762 20.2217 1.48287 22.8256 1.48883ZM22.8372 2.97763C21.2123 2.97763 19.8837 4.31812 19.8837 5.95525C19.8837 7.59238 21.2123 8.93287 22.8372 8.93287C24.4621 8.93287 25.8023 7.59238 25.8023 5.95525C25.8023 4.31812 24.4621 2.97763 22.8372 2.97763ZM22.8372 4.46644C23.6606 4.46644 24.314 5.12564 24.314 5.95525C24.314 6.78486 23.6606 7.44406 22.8372 7.44406C22.0138 7.44406 21.3721 6.78486 21.3721 5.95525C21.3721 5.12564 22.0138 4.46644 22.8372 4.46644ZM11.5814 10.41C11.2157 10.4502 10.9107 10.7982 10.9186 11.1661V11.9105C10.913 12.3038 11.2696 12.6655 11.6628 12.6655C12.056 12.6655 12.4125 12.3038 12.407 11.9105V11.1661C12.4161 10.7438 12.0011 10.3638 11.5814 10.41ZM11.5814 13.7598C11.2157 13.8 10.9107 14.148 10.9186 14.5159V15.2603C10.913 15.6536 11.2696 16.0153 11.6628 16.0153C12.056 16.0153 12.4125 15.6536 12.407 15.2603V14.5159C12.4161 14.0936 12.0011 13.7136 11.5814 13.7598ZM21.6279 16.7374C21.2622 16.7777 20.9572 17.1256 20.9651 17.4935V18.2379C20.9596 18.6312 21.3161 18.9929 21.7093 18.9929C22.1025 18.9929 22.459 18.6312 22.4535 18.2379V17.4935C22.4626 17.0712 22.0476 16.6912 21.6279 16.7374ZM11.5814 17.1096C11.2157 17.1499 10.9107 17.4978 10.9186 17.8657V18.6101C10.913 19.0034 11.2696 19.3651 11.6628 19.3651C12.056 19.3651 12.4125 19.0034 12.407 18.6101V17.8657C12.4161 17.4434 12.0011 17.0634 11.5814 17.1096ZM21.6279 20.0873C21.2622 20.1275 20.9572 20.4754 20.9651 20.8433V21.5877C20.9596 21.981 21.3161 22.3427 21.7093 22.3427C22.1025 22.3427 22.459 21.981 22.4535 21.5877V20.8433C22.4626 20.421 22.0476 20.0411 21.6279 20.0873ZM11.5814 20.4595C11.2157 20.4997 10.9107 20.8476 10.9186 21.2155V21.9599C10.913 22.3532 11.2696 22.7149 11.6628 22.7149C12.056 22.7149 12.4125 22.3532 12.407 21.9599V21.2155C12.4161 20.7932 12.0011 20.4133 11.5814 20.4595ZM21.6279 23.4371C21.2622 23.4773 20.9572 23.8252 20.9651 24.1931V24.9375C20.9596 25.3308 21.3161 25.6925 21.7093 25.6925C22.1025 25.6925 22.459 25.3308 22.4535 24.9375V24.1931C22.4626 23.7708 22.0476 23.3909 21.6279 23.4371ZM21.6279 26.7869C21.2622 26.8271 20.9572 27.175 20.9651 27.5429V28.2873C20.9596 28.6806 21.3161 29.0424 21.7093 29.0424C22.1025 29.0424 22.459 28.6806 22.4535 28.2873V27.5429C22.4626 27.1206 22.0476 26.7407 21.6279 26.7869Z" fill="#3A99AF"/>
</svg>
