<svg width="134" height="134" viewBox="0 0 134 134" fill="none" xmlns="http://www.w3.org/2000/svg">
<path d="M111.211 134H22.4852C10.0272 134 0 123.95 0 111.464V22.5363C0 10.05 10.0272 0 22.4852 0H111.515C123.973 0 134 10.05 134 22.5363V111.768C133.696 123.95 123.669 134 111.211 134Z" fill="white"/>
<path d="M110.84 50.9614L94.6479 54.6275L100.147 44.8514C103.202 39.3524 103.202 32.6314 100.147 27.1324C96.7866 21.6334 91.2876 18.2729 84.8721 18.2729H83.65C77.2345 18.2729 71.43 21.6334 68.375 27.1324C65.0145 32.6314 65.0145 39.3524 68.375 44.8514L82.4279 69.2914C82.7334 69.9024 83.6499 70.5134 84.5664 70.5134H86.0939L92.2039 59.8209L110.84 55.8494V107.173L84.261 111.756L55.2385 96.4809C54.0165 95.8699 52.7945 95.87 51.878 96.1755L23.161 105.951V54.933L53.4055 44.8514L61.6539 48.823C62.8759 49.434 64.098 48.8229 64.4035 47.6009C65.0145 46.3789 64.4034 45.1569 63.1814 44.8514L54.933 40.8799C54.0165 40.2689 52.7945 40.2689 51.878 40.5744L20.7169 50.9614C19.1894 51.5724 18.2729 52.7944 18.2729 54.3219V107.784C18.2729 108.701 18.5784 109.618 19.4949 109.923C20.1059 110.534 21.0224 110.534 21.9389 110.228L53.1 99.5359L82.1225 115.116C82.7335 115.422 83.3445 115.727 84.261 115.727C84.5665 115.727 84.872 115.727 85.1775 115.727L112.978 110.839C114.505 110.534 115.422 109.312 115.422 107.784V53.7109C115.422 52.7944 115.117 51.8779 114.2 51.2669C112.673 50.9614 111.756 50.6559 110.84 50.9614ZM83.9554 64.098L71.7354 42.4074C69.2914 38.1304 69.2914 33.2425 71.7354 28.9655C74.1794 24.6885 78.4565 22.2444 83.3446 22.2444H84.5664C89.4544 22.2444 93.7314 24.6885 96.1754 28.9655C98.6194 33.2425 98.6194 38.1304 96.1754 42.4074L83.9554 64.098Z" fill="#3A99AF"/>
<path d="M54.0159 49.4338C54.0159 48.5173 53.4049 47.9062 52.4884 47.9062C51.5719 47.9062 50.9609 48.5173 50.9609 49.4338V54.0163C50.9609 54.9328 51.5719 55.5438 52.4884 55.5438C53.4049 55.5438 54.0159 54.9328 54.0159 54.0163V49.4338Z" fill="#3A99AF"/>
<path d="M54.0159 74.7907C54.0159 73.8742 53.4049 73.2632 52.4884 73.2632C51.5719 73.2632 50.9609 73.8742 50.9609 74.7907V79.3732C50.9609 80.2897 51.5719 80.9007 52.4884 80.9007C53.4049 80.9007 54.0159 80.2897 54.0159 79.3732V74.7907Z" fill="#3A99AF"/>
<path d="M52.4884 86.0938C51.5719 86.0938 50.9609 86.7048 50.9609 87.6213V92.2038C50.9609 93.1203 51.5719 93.7313 52.4884 93.7313C53.4049 93.7313 54.0159 93.1203 54.0159 92.2038V87.6213C54.0159 86.7048 53.4049 86.0938 52.4884 86.0938Z" fill="#3A99AF"/>
<path d="M54.0159 62.2648C54.0159 61.3483 53.4049 60.7373 52.4884 60.7373C51.5719 60.7373 50.9609 61.3483 50.9609 62.2648V66.8473C50.9609 67.7638 51.5719 68.3748 52.4884 68.3748C53.4049 68.3748 54.0159 67.7638 54.0159 66.8473V62.2648Z" fill="#3A99AF"/>
<path d="M82.1226 93.7317C82.1226 94.6482 82.7336 95.2592 83.6501 95.2592C84.5666 95.2592 85.1776 94.6482 85.1776 93.7317V89.4547C85.1776 88.5382 84.5666 87.9272 83.6501 87.9272C82.7336 87.9272 82.1226 88.5382 82.1226 89.4547V93.7317Z" fill="#3A99AF"/>
<path d="M83.6501 82.7334C84.5666 82.7334 85.1776 82.1224 85.1776 81.2059V76.9289C85.1776 76.0124 84.5666 75.4014 83.6501 75.4014C82.7336 75.4014 82.1226 76.0124 82.1226 76.9289V81.2059C82.1226 82.1224 83.0391 82.7334 83.6501 82.7334Z" fill="#3A99AF"/>
<path d="M82.1226 106.562C82.1226 107.479 82.7336 108.09 83.6501 108.09C84.5666 108.09 85.1776 107.479 85.1776 106.562V102.285C85.1776 101.369 84.5666 100.758 83.6501 100.758C82.7336 100.758 82.1226 101.369 82.1226 102.285V106.562Z" fill="#3A99AF"/>
<path d="M83.6501 27.438C78.7621 27.438 74.7905 31.4095 74.7905 36.2975C74.7905 41.1855 78.7621 45.157 83.6501 45.157C88.5381 45.157 92.5097 41.1855 92.5097 36.2975C92.5097 31.4095 88.5381 27.438 83.6501 27.438ZM83.6501 42.102C80.5951 42.102 77.8455 39.658 77.8455 36.2975C77.8455 33.2425 80.2896 30.493 83.6501 30.493C86.7051 30.493 89.4547 32.937 89.4547 36.2975C89.4547 39.658 87.0106 42.102 83.6501 42.102Z" fill="#3A99AF"/>
</svg>
