<svg width="32" height="32" viewBox="0 0 32 32" fill="none" xmlns="http://www.w3.org/2000/svg">
<path d="M4.02459 10.0248H26.596C27.0246 10.0248 27.3103 9.73912 27.3103 9.31055V4.02483C27.3103 3.59626 27.0246 3.31055 26.596 3.31055H4.02459C3.59602 3.31055 3.3103 3.59626 3.3103 4.02483V9.31055C3.3103 9.73912 3.73887 10.0248 4.02459 10.0248ZM4.88173 4.73912H26.0246V8.59626H4.88173V4.73912Z" fill="white"/>
<path d="M4.02459 27.5963H15.3103C15.7389 27.5963 16.0246 27.3106 16.0246 26.882V12.7392C16.0246 12.3106 15.7389 12.0249 15.3103 12.0249H4.02459C3.59602 12.0249 3.3103 12.3106 3.3103 12.7392V26.882C3.3103 27.3106 3.73887 27.5963 4.02459 27.5963ZM4.88173 13.4535H14.7389V26.0249H4.88173V13.4535Z" fill="white"/>
<path d="M26.7389 12.0249H19.0246C18.596 12.0249 18.3103 12.3106 18.3103 12.7392C18.3103 13.1678 18.596 13.4535 19.0246 13.4535H26.7389C27.1674 13.4535 27.4532 13.1678 27.4532 12.7392C27.4532 12.4535 27.0246 12.0249 26.7389 12.0249Z" fill="white"/>
<path d="M26.7389 15.5962H19.0246C18.596 15.5962 18.3103 15.8819 18.3103 16.3105C18.3103 16.739 18.596 17.0248 19.0246 17.0248H26.7389C27.1674 17.0248 27.4532 16.739 27.4532 16.3105C27.4532 15.8819 27.0246 15.5962 26.7389 15.5962Z" fill="white"/>
<path d="M26.7389 19.0249H19.0246C18.596 19.0249 18.3103 19.3106 18.3103 19.7392C18.3103 20.1678 18.596 20.4535 19.0246 20.4535H26.7389C27.1674 20.4535 27.4532 20.1678 27.4532 19.7392C27.4532 19.4535 27.0246 19.0249 26.7389 19.0249Z" fill="white"/>
<path d="M26.7389 22.5962H19.0246C18.596 22.5962 18.3103 22.8819 18.3103 23.3105C18.3103 23.739 18.596 24.0248 19.0246 24.0248H26.7389C27.1674 24.0248 27.4532 23.739 27.4532 23.3105C27.4532 22.8819 27.0246 22.5962 26.7389 22.5962Z" fill="white"/>
<path d="M26.7389 26.1675H19.0246C18.596 26.1675 18.3103 26.4532 18.3103 26.8818C18.3103 27.3103 18.596 27.5961 19.0246 27.5961H26.7389C27.1674 27.5961 27.4532 27.3103 27.4532 26.8818C27.4532 26.4532 27.0246 26.1675 26.7389 26.1675Z" fill="white"/>
<path d="M4.02459 31.1678H26.596C27.0246 31.1678 27.3103 30.8821 27.3103 30.4535C27.3103 30.025 27.0246 29.7393 26.596 29.7393H4.02459C3.59602 29.7393 3.3103 30.025 3.3103 30.4535C3.3103 30.7393 3.73887 31.1678 4.02459 31.1678Z" fill="white"/>
<path d="M0 0V32H1.71429V30.5714V28V1.42857H29.2857V28V30.5714V32H31H31.1429V0H0Z" fill="white"/>
</svg>
