<svg width="134" height="134" viewBox="0 0 134 134" fill="none" xmlns="http://www.w3.org/2000/svg">
<path d="M111.211 134H22.4852C10.0272 134 0 123.95 0 111.464V22.5363C0 10.05 10.0272 0 22.4852 0H111.515C123.973 0 134 10.05 134 22.5363V111.768C133.696 123.95 123.669 134 111.211 134Z" fill="white"/>
<path d="M110.55 18.2729H25.2774C23.1456 18.2729 21.3184 20.1003 21.3184 22.2321V111.768C21.3184 112.987 22.232 113.9 23.4502 113.9C24.6684 113.9 25.5821 112.987 25.5821 111.768V22.5366H110.246V111.768C110.246 112.987 111.159 113.9 112.378 113.9C113.596 113.9 114.509 112.987 114.509 111.768V22.2321C114.205 20.1003 112.682 18.2729 110.55 18.2729Z" fill="#3A99AF"/>
<path d="M103.546 107.809H31.9776C30.7594 107.809 29.8457 108.723 29.8457 109.941C29.8457 111.159 30.7594 112.073 31.9776 112.073H103.546C104.764 112.073 105.678 111.159 105.678 109.941C105.678 108.723 104.764 107.809 103.546 107.809Z" fill="#3A99AF"/>
<path d="M101.414 28.6274H34.1094C31.9776 28.6274 29.8457 30.4548 29.8457 32.8912V41.4184C29.8457 43.5502 31.6731 45.682 34.1094 45.682H101.719C103.85 45.682 105.982 43.8548 105.982 41.4184V32.8912C105.678 30.4548 103.85 28.6274 101.414 28.6274ZM101.414 40.8093H34.4139V32.8912H101.414V40.8093Z" fill="#3A99AF"/>
<path d="M34.1094 100.5H65.1731C67.3049 100.5 69.4366 98.6731 69.4366 96.2368V54.2095C69.4366 52.0777 67.6095 49.9458 65.1731 49.9458H34.1094C31.9776 49.9458 29.8457 51.7731 29.8457 54.2095V96.2368C29.8457 98.6731 31.6731 100.5 34.1094 100.5ZM34.1094 54.514H64.564V95.9322H34.1094V54.514Z" fill="#3A99AF"/>
<path d="M77.3548 99.8912H103.546C104.459 99.8912 105.068 99.2821 105.068 98.3684C105.068 97.4548 104.459 96.8457 103.546 96.8457H77.3548C76.4411 96.8457 75.832 97.4548 75.832 98.3684C75.832 99.2821 76.4411 99.8912 77.3548 99.8912Z" fill="#3A99AF"/>
<path d="M77.3548 88.3184H103.546C104.459 88.3184 105.068 87.7093 105.068 86.7957C105.068 85.882 104.459 85.2729 103.546 85.2729H77.3548C76.4411 85.2729 75.832 85.882 75.832 86.7957C75.832 87.7093 76.4411 88.3184 77.3548 88.3184Z" fill="#3A99AF"/>
<path d="M77.3548 76.7457H103.546C104.459 76.7457 105.068 76.1366 105.068 75.2229C105.068 74.3093 104.459 73.7002 103.546 73.7002H77.3548C76.4411 73.7002 75.832 74.3093 75.832 75.2229C75.832 76.1366 76.4411 76.7457 77.3548 76.7457Z" fill="#3A99AF"/>
<path d="M77.3548 65.4776H103.546C104.459 65.4776 105.068 64.8685 105.068 63.9549C105.068 63.0412 104.459 62.4321 103.546 62.4321H77.3548C76.4411 62.4321 75.832 63.0412 75.832 63.9549C75.832 64.5639 76.4411 65.4776 77.3548 65.4776Z" fill="#3A99AF"/>
<path d="M77.3548 53.9048H103.546C104.459 53.9048 105.068 53.2957 105.068 52.3821C105.068 51.4685 104.459 50.8594 103.546 50.8594H77.3548C76.4411 50.8594 75.832 51.4685 75.832 52.3821C75.832 53.2957 76.4411 53.9048 77.3548 53.9048Z" fill="#3A99AF"/>
</svg>
