<svg width="183" height="344" viewBox="0 0 183 344" fill="none" xmlns="http://www.w3.org/2000/svg">
<path d="M156.19 115.33C150.37 96.95 136.95 81.94 119.62 74.01L95.5498 59.79L62.9799 74.01C45.6499 81.95 32.2299 96.95 26.4099 115.33L91.0198 125.01L156.19 115.33Z" fill="#E8EDF2"/>
<path d="M15.22 129.54H167.39V329.07H15.22V129.54Z" fill="url(#paint0_linear)"/>
<path d="M149.61 140.12H167.39V318.49H149.61V140.12Z" fill="#3A99AF"/>
<path d="M0 127.72C0 134.56 5.55 140.11 12.39 140.11H170.21C177.05 140.11 182.6 134.56 182.6 127.72C182.6 120.88 177.05 115.33 170.21 115.33H12.39C5.55 115.33 0 120.88 0 127.72Z" fill="url(#paint1_linear)"/>
<path d="M0 330.89C0 337.73 5.55 343.28 12.39 343.28H170.21C177.05 343.28 182.6 337.73 182.6 330.89C182.6 324.05 177.05 318.5 170.21 318.5H12.39C5.55 318.49 0 324.04 0 330.89Z" fill="url(#paint2_linear)"/>
<path d="M170.21 115.33H152.65C159.49 115.33 165.04 120.88 165.04 127.72C165.04 134.56 159.49 140.11 152.65 140.11H170.21C177.05 140.11 182.6 134.56 182.6 127.72C182.6 120.88 177.05 115.33 170.21 115.33Z" fill="#3A99AF"/>
<path d="M170.21 318.49H152.65C159.49 318.49 165.04 324.04 165.04 330.88C165.04 337.72 159.49 343.27 152.65 343.27H170.21C177.05 343.27 182.6 337.72 182.6 330.88C182.6 324.04 177.05 318.49 170.21 318.49Z" fill="#3A99AF"/>
<path d="M119.62 74H62.98V8.49001C62.98 3.80001 66.78 0 71.4698 0H111.13C115.82 0 119.62 3.80001 119.62 8.49001V74Z" fill="url(#paint3_linear)"/>
<path d="M111.13 0.0100098H94.3999C99.0899 0.0100098 102.89 3.81 102.89 8.5V74.01H119.63V8.5C119.62 3.81 115.82 0.0100098 111.13 0.0100098Z" fill="#3A99AF"/>
<path d="M119.62 74H102.88C120.21 81.94 133.63 96.94 139.45 115.32H156.19C150.37 96.94 136.95 81.94 119.62 74Z" fill="#C5D3DD"/>
<path d="M58.624 185.216C58.624 187.04 58.144 188.608 57.184 189.92C56.224 191.232 54.944 192.24 53.344 192.944C51.776 193.648 50.032 194 48.112 194H31.84V159.92H49.408C51.008 159.92 52.384 160.352 53.536 161.216C54.688 162.048 55.584 163.136 56.224 164.48C56.864 165.824 57.184 167.2 57.184 168.608C57.184 170.272 56.752 171.84 55.888 173.312C55.056 174.752 53.856 175.824 52.288 176.528C54.208 177.104 55.744 178.16 56.896 179.696C58.048 181.2 58.624 183.04 58.624 185.216ZM37.216 164.576V174.608H47.104C48.448 174.608 49.568 174.144 50.464 173.216C51.36 172.256 51.808 171.056 51.808 169.616C51.808 168.144 51.392 166.944 50.56 166.016C49.728 165.056 48.672 164.576 47.392 164.576H37.216ZM53.104 184.208C53.104 182.8 52.656 181.568 51.76 180.512C50.896 179.456 49.792 178.928 48.448 178.928H37.216V189.344H48.112C49.52 189.344 50.704 188.848 51.664 187.856C52.624 186.832 53.104 185.616 53.104 184.208ZM63.5586 194V168.896H68.8386V177.152H73.5906C76.5666 177.152 78.8386 177.904 80.4066 179.408C81.9746 180.912 82.7586 182.896 82.7586 185.36C82.7586 187.856 82.0066 189.92 80.5026 191.552C78.9986 193.184 76.8226 194 73.9746 194H63.5586ZM86.8866 194V168.944H92.1666V194H86.8866ZM68.8386 189.92H73.1586C74.6946 189.92 75.8146 189.488 76.5186 188.624C77.2226 187.728 77.5746 186.672 77.5746 185.456C77.5746 184.272 77.2386 183.248 76.5666 182.384C75.9266 181.52 74.7746 181.088 73.1106 181.088H68.8386V189.92Z" fill="white"/>
<path d="M36.676 234.288C34.756 234.288 33.136 233.94 31.816 233.244C30.52 232.524 29.524 231.54 28.828 230.292L32.032 228.852C32.44 229.548 33.016 230.1 33.76 230.508C34.504 230.892 35.404 231.084 36.46 231.084C37.732 231.084 38.716 230.82 39.412 230.292C40.108 229.764 40.456 229.068 40.456 228.204C40.456 227.412 40.168 226.776 39.592 226.296C39.016 225.792 38.2 225.528 37.144 225.504H35.2V222.984H37.216C37.936 222.984 38.512 222.756 38.944 222.3C39.4 221.82 39.628 221.22 39.628 220.5C39.628 219.78 39.352 219.204 38.8 218.772C38.272 218.316 37.468 218.088 36.388 218.088C35.452 218.088 34.672 218.268 34.048 218.628C33.448 218.964 32.968 219.468 32.608 220.14L29.62 218.556C30.244 217.404 31.144 216.504 32.32 215.856C33.52 215.208 34.936 214.884 36.568 214.884C38.464 214.884 40.036 215.328 41.284 216.216C42.532 217.104 43.156 218.364 43.156 219.996C43.156 220.86 42.952 221.676 42.544 222.444C42.136 223.188 41.5 223.74 40.636 224.1C41.788 224.46 42.652 225.048 43.228 225.864C43.828 226.68 44.128 227.652 44.128 228.78C44.128 229.932 43.804 230.928 43.156 231.768C42.532 232.584 41.656 233.208 40.528 233.64C39.4 234.072 38.116 234.288 36.676 234.288ZM45.9783 238.5V230.508H46.4103C47.0823 230.508 47.6823 230.244 48.2103 229.716C48.7623 229.188 49.2063 228.228 49.5423 226.836C49.9023 225.444 50.1183 223.452 50.1903 220.86L50.4063 215.172H63.8343V230.508H66.4263V238.5H62.9343V234H49.4343V238.5H45.9783ZM51.6303 230.508H59.8743V218.592H53.8983L53.7903 221.22C53.6703 223.98 53.4303 226.08 53.0703 227.52C52.7343 228.96 52.2543 229.956 51.6303 230.508ZM78.3182 234.36C76.3742 234.36 74.6702 233.916 73.2062 233.028C71.7422 232.14 70.6022 230.964 69.7862 229.5C68.9702 228.012 68.5622 226.392 68.5622 224.64C68.5622 222.864 68.9702 221.232 69.7862 219.744C70.6022 218.256 71.7422 217.068 73.2062 216.18C74.6702 215.292 76.3862 214.848 78.3542 214.848C80.3222 214.848 82.0262 215.304 83.4662 216.216C84.9062 217.104 86.0102 218.28 86.7782 219.744C87.5702 221.208 87.9662 222.78 87.9662 224.46C87.9662 225.06 87.9302 225.54 87.8582 225.9H72.7742C72.8462 227.004 73.1462 227.976 73.6742 228.816C74.2262 229.632 74.9102 230.28 75.7262 230.76C76.5662 231.216 77.4782 231.444 78.4622 231.444C79.5182 231.444 80.5142 231.18 81.4502 230.652C82.3862 230.124 83.0342 229.428 83.3942 228.564L86.7782 229.536C86.1302 230.952 85.0502 232.116 83.5382 233.028C82.0502 233.916 80.3102 234.36 78.3182 234.36ZM72.6662 223.272H84.0422C83.9462 222.192 83.6342 221.244 83.1062 220.428C82.5782 219.588 81.8942 218.94 81.0542 218.484C80.2382 218.004 79.3262 217.764 78.3182 217.764C77.3342 217.764 76.4222 218.004 75.5822 218.484C74.7662 218.94 74.0942 219.588 73.5662 220.428C73.0382 221.244 72.7382 222.192 72.6662 223.272ZM99.7283 234.36C97.7843 234.36 96.0803 233.916 94.6163 233.028C93.1523 232.116 92.0123 230.916 91.1963 229.428C90.3803 227.94 89.9723 226.32 89.9723 224.568C89.9723 222.816 90.3683 221.208 91.1603 219.744C91.9763 218.256 93.1043 217.068 94.5443 216.18C96.0083 215.292 97.7363 214.848 99.7283 214.848C101.672 214.848 103.34 215.28 104.732 216.144C106.148 216.984 107.204 218.112 107.9 219.528L104.048 220.752C103.616 219.96 103.004 219.348 102.212 218.916C101.444 218.46 100.592 218.232 99.6563 218.232C98.6003 218.232 97.6403 218.508 96.7763 219.06C95.9363 219.588 95.2643 220.332 94.7603 221.292C94.2803 222.252 94.0403 223.344 94.0403 224.568C94.0403 225.792 94.2923 226.884 94.7963 227.844C95.3243 228.804 96.0083 229.572 96.8483 230.148C97.7123 230.7 98.6603 230.976 99.6923 230.976C100.652 230.976 101.564 230.724 102.428 230.22C103.292 229.716 103.868 229.104 104.156 228.384L108.044 229.536C107.42 230.952 106.376 232.116 104.912 233.028C103.448 233.916 101.72 234.36 99.7283 234.36ZM111.306 234V215.172H115.266V221.364H119.766C121.998 221.364 123.69 221.928 124.842 223.056C126.018 224.184 126.606 225.672 126.606 227.52C126.606 229.392 126.042 230.94 124.914 232.164C123.81 233.388 122.178 234 120.018 234H111.306ZM115.266 230.94H119.406C120.582 230.94 121.434 230.616 121.962 229.968C122.49 229.296 122.754 228.504 122.754 227.592C122.754 226.704 122.502 225.936 121.998 225.288C121.494 224.64 120.618 224.316 119.37 224.316H115.266V230.94Z" fill="white"/>
<defs>
<linearGradient id="paint0_linear" x1="191.564" y1="287.19" x2="-8.96163" y2="171.417" gradientUnits="userSpaceOnUse">
<stop stop-color="#3A99AF"/>
<stop offset="0.1377" stop-color="#2D9FB6"/>
<stop offset="0.3776" stop-color="#1DA6BF"/>
<stop offset="0.6462" stop-color="#13ABC4"/>
<stop offset="1" stop-color="#10ACC6"/>
</linearGradient>
<linearGradient id="paint1_linear" x1="161.218" y1="168.088" x2="21.3846" y2="87.3549" gradientUnits="userSpaceOnUse">
<stop stop-color="#3A99AF"/>
<stop offset="0.1377" stop-color="#2D9FB6"/>
<stop offset="0.3776" stop-color="#1DA6BF"/>
<stop offset="0.6462" stop-color="#13ABC4"/>
<stop offset="1" stop-color="#10ACC6"/>
</linearGradient>
<linearGradient id="paint2_linear" x1="161.218" y1="371.253" x2="21.3847" y2="290.52" gradientUnits="userSpaceOnUse">
<stop stop-color="#3A99AF"/>
<stop offset="0.1377" stop-color="#2D9FB6"/>
<stop offset="0.3776" stop-color="#1DA6BF"/>
<stop offset="0.6462" stop-color="#13ABC4"/>
<stop offset="1" stop-color="#10ACC6"/>
</linearGradient>
<linearGradient id="paint3_linear" x1="127.783" y1="59.863" x2="55.9557" y2="18.394" gradientUnits="userSpaceOnUse">
<stop stop-color="#3A99AF"/>
<stop offset="0.1377" stop-color="#2D9FB6"/>
<stop offset="0.3776" stop-color="#1DA6BF"/>
<stop offset="0.6462" stop-color="#13ABC4"/>
<stop offset="1" stop-color="#10ACC6"/>
</linearGradient>
</defs>
</svg>
